<svg xmlns="http://www.w3.org/2000/svg" viewBox="0 0 512 512" role="img" aria-label="DCDcom Intake app icon">
  <rect width="512" height="512" rx="112" fill="#13233f"/>
  <rect x="50" y="50" width="412" height="412" rx="88" fill="#f7faf4"/>
  <rect x="92" y="92" width="328" height="328" rx="72" fill="#163a67"/>
  <path fill="#f7faf4" d="M151 159h84c56 0 93 36 93 97s-37 97-93 97h-84V159Zm78 145c27 0 44-18 44-48s-17-48-44-48h-22v96h22Z"/>
  <path fill="#6aff00" d="M282 256c0-61 42-103 103-103 19 0 37 4 54 13v55c-15-9-31-14-47-14-31 0-52 20-52 49s21 49 52 49c18 0 35-5 50-15v56c-17 9-37 13-59 13-60 0-101-42-101-103Z"/>
  <path fill="#baff6a" d="M155 363c-31-41-29-85 4-117 17-16 37-23 60-22l-5 45c-9 1-17 5-24 11-16 16-17 38-1 60l18-18 13 99-99-13 34-45Z"/>
  <path fill="#6aff00" d="M348 121c30 41 28 85-5 117-17 16-37 23-60 22l5-45c9-1 17-5 24-11 16-16 17-38 1-60l-18 18-13-99 99 13-33 45Z"/>
</svg>
